# xmcd
#
# Track frame offsets:
#	150
#	11522
#	33491
#	52954
#	70266
#
# Disc length: 1155 seconds
#
# Revision: 0
# Processed by: cddbd v1.5.2PL0 Copyright (c) Steve Scherf et al.
# Submitted via: dBpowerAMP V4.0
#
DISCID=38048105
DTITLE=P-A-U-L and the Harper Woods Heroes - Sunrise from the Other Side
DYEAR=2008
DGENRE=blues
TTITLE0=Beautiful Things
TTITLE1=Empty Bottle Blues
TTITLE2=Shine On a Better World
TTITLE3=Things I Meant To Say To You
TTITLE4=Ashes
EXTD=
EXTT0=
EXTT1=
EXTT2=
EXTT3=
EXTT4=
PLAYORDER=
